Coordinates
version=1
nRows=10
nColumns=40
inDegrees=yes

Units are S.I. units (second, meters, Newtons, ...)
Angles are in degrees.

endheader
time	pelvis_tilt	pelvis_list	pelvis_rotation	pelvis_tx	pelvis_ty	pelvis_tz	hip_flexion_r	hip_adduction_r	hip_rotation_r	knee_angle_r	knee_angle_r_beta	ankle_angle_r	subtalar_angle_r	mtp_angle_r	hip_flexion_l	hip_adduction_l	hip_rotation_l	knee_angle_l	knee_angle_l_beta	ankle_angle_l	subtalar_angle_l	mtp_angle_l	lumbar_extension	lumbar_bending	lumbar_rotation	arm_flex_r	arm_add_r	arm_rot_r	elbow_flex_r	pro_sup_r	wrist_flex_r	wrist_dev_r	arm_flex_l	arm_add_l	arm_rot_l	elbow_flex_l	pro_sup_l	wrist_flex_l	wrist_dev_l
     48.89328571	     -4.71198344	     -2.50909341	     -4.87377261	      0.81842835	      0.92687470	      0.43950221	     26.46446316	     -1.99809953	    -14.83934047	     13.67768013	     13.67768013	      2.48173082	      3.43267026	      6.67711177	      3.79673512	     -2.95671631	    -13.61168415	     12.77715236	     12.77715236	     14.01408899	     -8.20117821	     -9.22717871	     -9.91563646	      3.87469246	      1.20439344	    -15.74068671	    -15.32518884	    -13.67346452	     24.59665328	     47.51521559	      0.00000000	      0.00000000	     18.51880010	    -20.91052046	    -13.31261254	     77.89342438	     47.68618137	      0.00000000	      0.00000000
     48.90657143	     -4.62599458	     -2.62608456	     -4.87689633	      0.82065733	      0.92612037	      0.44145560	     25.63505275	     -1.65838823	    -15.05770686	     12.81518230	     12.81518230	      1.88553494	      3.83817676	      6.57591490	      2.72330403	     -3.07586264	    -13.63156316	     12.14635573	     12.14635573	     14.38676416	     -7.80331800	     -9.21927818	     -9.87431175	      4.01854856	      1.44041134	    -16.47128901	    -15.07960111	    -13.85218847	     24.67667006	     47.50755518	      0.00000000	      0.00000000	     18.44095067	    -20.70920340	    -13.60010297	     79.00673288	     47.72823615	      0.00000000	      0.00000000
     48.91985714	     -4.71614015	     -2.61545594	     -4.87431285	      0.82266970	      0.92481683	      0.44342910	     25.42491528	     -1.56494178	    -15.11713684	     13.00813450	     13.00813450	      1.67661576	      3.77719615	      6.52843020	      2.19996956	     -3.14850875	    -13.58839001	     12.15134443	     12.15134443	     14.80130581	     -7.87137318	     -9.33133403	     -9.54697347	      4.09562266	      1.37043260	    -16.58285707	    -14.93590945	    -13.86628729	     24.68696708	     47.50533703	      0.00000000	      0.00000000	     18.41116745	    -20.69285599	    -13.63416972	     79.12058705	     47.73277738	      0.00000000	      0.00000000
     48.93314286	     -4.54601286	     -2.69302513	     -4.82105887	      0.82517643	      0.92372400	      0.44555613	     24.84612265	     -1.35472385	    -14.84965279	     13.20014802	     13.20014802	     -0.10954104	      2.66819434	      1.07160362	      1.39177719	     -3.36366337	    -13.82296743	     12.31617125	     12.31617125	     15.97546459	     -6.95509613	     -7.98164548	     -9.61803649	      4.27806128	      0.96395454	    -16.68474689	    -14.66314065	    -14.74109990	     25.81019742	     47.43125813	      0.00000000	      0.00000000	     17.34846176	    -20.52559542	    -14.94459894	     81.19231054	     47.87869847	      0.00000000	      0.00000000
     48.94642857	     -4.51891273	     -2.82260576	     -4.79328022	      0.82744582	      0.92268228	      0.44782376	     24.60825357	     -1.15399433	    -14.63658096	     13.98301808	     13.98301808	     -0.14050328	      1.94628221	      0.47385254	      0.78305099	     -3.61989484	    -13.72445137	     12.45902214	     12.45902214	     16.44442434	     -7.00088752	     -7.74629021	     -9.46894267	      4.52421807	      1.06785067	    -16.56368814	    -14.44055443	    -14.72693832	     25.81809581	     47.41727441	      0.00000000	      0.00000000	     17.13570727	    -20.28135804	    -14.90722342	     81.40031891	     47.88240417	      0.00000000	      0.00000000
     48.95971429	     -4.50948298	     -3.06478965	     -4.74711647	      0.82982092	      0.92187117	      0.45020426	     24.24542784	     -0.83771798	    -14.60826057	     14.62061333	     14.62061333	      0.04015477	      1.61110287	      0.13640975	      0.19920543	     -4.01709270	    -13.59085641	     12.61668550	     12.61668550	     16.77168171	     -7.11385738	     -7.66972873	     -9.30682914	      4.91585442	      1.14908187	    -16.23608484	    -14.14330123	    -14.67898184	     25.92618378	     47.40794264	      0.00000000	      0.00000000	     16.80769865	    -19.94705250	    -14.80626104	     81.37120528	     47.87373529	      0.00000000	      0.00000000
     48.97300000	     -4.47779435	     -3.19626670	     -4.71627205	      0.83203530	      0.92107614	      0.45286439	     24.01967931	     -0.49841358	    -13.73148610	     15.41871580	     15.41871580	     -0.71415545	     -0.56542751	     -2.96271467	      0.00785512	     -4.46407225	    -13.74811797	     13.70746567	     13.70746567	     18.53270380	     -6.33280615	     -4.68285159	     -9.22965177	      5.10695385	      0.89513075	    -15.51022390	    -14.04381140	    -14.42924656	     25.93663144	     47.33470845	      0.00000000	      0.00000000	     16.04050350	    -19.75003556	    -15.42255800	     82.04818623	     47.93946910	      0.00000000	      0.00000000
     48.98628571	     -4.38717668	     -3.39436395	     -4.70092893	      0.83429374	      0.92069549	      0.45555231	     23.76463396	     -0.25046667	    -13.60267044	     16.44162750	     16.44162750	     -0.20310044	     -1.03322645	     -3.43366951	     -0.43935597	     -4.89325744	    -13.64322376	     14.27875977	     14.27875977	     18.81106405	     -6.54538555	     -4.50539416	     -9.23178036	      5.40490181	      1.01072737	    -14.90690966	    -13.85176478	    -14.32049068	     26.09576964	     47.31678883	      0.00000000	      0.00000000	     15.69254978	    -19.38961594	    -15.31915468	     81.87757931	     47.92926551	      0.00000000	      0.00000000
     48.99957143	     -4.35794556	     -3.57040742	     -4.71907807	      0.83655681	      0.92070505	      0.45839684	     23.36679856	      0.05230414	    -13.45075659	     17.04576510	     17.04576510	      0.36330515	     -1.29318851	     -3.75513273	     -0.85362340	     -5.30374062	    -13.58922265	     14.75845051	     14.75845051	     18.83077236	     -6.76927881	     -4.38135932	     -9.17887290	      5.64657629	      1.22580025	    -14.12809382	    -13.48581236	    -14.22257009	     26.36347213	     47.30120997	      0.00000000	      0.00000000	     15.19063908	    -18.84610155	    -15.11503751	     81.67545271	     47.90917280	      0.00000000	      0.00000000
     49.01285714	     -4.41205543	     -3.71931243	     -4.65409904	      0.83825972	      0.92046133	      0.46131804	     23.45124012	      0.30379547	    -12.98014305	     18.27696231	     18.27696231	      0.96614454	     -2.53628358	     -4.08377754	     -0.48846324	     -5.89233324	    -13.37454977	     16.51114792	     16.51114792	     19.29826404	     -7.21747493	     -3.75157365	     -9.09902872	      5.85911301	      1.09751068	    -13.13055077	    -13.37402253	    -13.98345763	     26.67317946	     47.26536313	      0.00000000	      0.00000000	     14.65445575	    -18.61267572	    -15.15417688	     81.25038259	     47.90439568	      0.00000000	      0.00000000
